# AST/ASF file generated using VICON BodyLanguage
# -----------------------------------------------
:version 1.10
:name VICON
:units
  mass 1.0
  length 0.45
  angle deg
:documentation
   .ast/.asf automatically generated from VICON data using
   VICON BodyBuilder and BodyLanguage model FoxedUp or BRILLIANT.MOD
:root
   order TX TY TZ RX RY RZ
   axis XYZ
   position 0 0 0  
   orientation 0 0 0 
:bonedata
  begin
     id 1 
     name lhipjoint
     direction 0.630305 -0.712092 0.309259 
     length 2.29033 
     axis 0 0 0  XYZ
  end
  begin
     id 2 
     name lfemur
     direction 0.34202 -0.939693 0  
     length 6.43538  
     axis 0 0 20  XYZ
    dof rx ry rz
    limits (-160.0 20.0)
           (-70.0 70.0)
           (-60.0 70.0)
  end
  begin
     id 3 
     name ltibia
     direction 0.34202 -0.939693 0   
     length 7.43097   
     axis 0 0 20   XYZ
    dof rx
    limits (-10.0 170.0)
  end
  begin
     id 4 
     name lfoot
     direction 0.0334653 -0.0919451 0.995202   
     length 1.78438   
     axis -90 7.62852e-016 20   XYZ
    dof rx rz
    limits (-45.0 90.0)
           (-70.0 20.0)
  end
  begin
     id 5 
     name ltoes
     direction 1.53535e-011 -4.21933e-011 1   
     length 0.90832   
     axis -90 7.62852e-016 20   XYZ
    dof rx
    limits (-90.0 20.0)
  end
  begin
     id 6 
     name rhipjoint
     direction -0.682059 -0.67077 0.291312   
     length 2.43143  
     axis 0 0 0  XYZ 
  end
  begin
     id 7 
     name rfemur
     direction -0.34202 -0.939693 0   
     length 6.63488   
     axis 0 0 -20   XYZ
    dof rx ry rz
    limits (-160.0 20.0)
           (-70.0 70.0)
           (-70.0 60.0)
  end
  begin
     id 8 
     name rtibia
     direction -0.34202 -0.939693 0   
     length 6.86532   
     axis 0 0 -20   XYZ
    dof rx
    limits (-10.0 170.0)
 end
 begin
     id 9 
     name rfoot
     direction -0.105199 -0.289033 0.951521   
     length 1.77126  
     axis -90 -7.62852e-016 -20   XYZ
    dof rx rz
    limits (-45.0 90.0)
           (-20.0 70.0)
  end
  begin
     id 10 
     name rtoes
     direction -1.53551e-011 -4.21978e-011 1   
     length 0.889273   
     axis -90 -7.62852e-016 -20   XYZ
    dof rx
    limits (-90.0 20.0)
  end
  begin
     id 11 
     name lowerback
     direction -0.0514305 0.998089 0.034245   
     length 2.02077   
     axis 0 0 0   XYZ
    dof rx ry rz
    limits (-20.0 45.0)
           (-30.0 30.0)
           (-30.0 30.0)
  end
  begin
     id 12 
     name upperback
     direction 0.0203189 0.999449 -0.0262315   
     length 2.01413   
     axis 0 0 0   XYZ
    dof rx ry rz
    limits (-20.0 45.0)
           (-30.0 30.0)
           (-30.0 30.0)
  end
  begin
     id 13 
     name thorax
     direction 0.0452736 0.998142 -0.0407729   
     length 2.02986   
     axis 0 0 0   XYZ
    dof rx ry rz
    limits (-20.0 45.0)
           (-30.0 30.0)
           (-30.0 30.0)
  end
  begin
     id 14 
     name lowerneck
     direction -0.0180464 0.999645 -0.0195774   
     length 1.59034   
     axis 0 0 0   XYZ
    dof rx ry rz
    limits (-20.0 45.0)
           (-30.0 30.0)
           (-30.0 30.0)
  end
  begin
     id 15 
     name upperneck
     direction 0.0732272 0.979935 -0.18538   
     length 1.57486   
     axis 0 0 0   XYZ
    dof rx ry rz
    limits (-20.0 45.0)
           (-30.0 30.0)
           (-30.0 30.0)
  end
  begin
     id 16
     name head
     direction 0.0252963 0.997909 -0.059472  
     length 1.60334  
     axis 0 0 0   XYZ
    dof rx ry rz
    limits (-20.0 45.0)
           (-30.0 30.0)
           (-30.0 30.0)
  end
  begin
     id 17 
     name lclavicle
     direction 0.943819 0.330449 0.00315172  
     length 3.50322  
     axis 0 0 0   XYZ
    dof ry rz
    limits (-20.0 10.0)
           (0.0 20.0)
  end
  begin
     id 18 
     name lhumerus
     direction 1 -4.48949e-011 2.22502e-028   
     length 4.63208   
     axis 180 -30 -90   XYZ
    dof rx ry rz
    limits (-60.0 90.0)
           (-90.0 90.0)
           (-90.0 90.0)
  end
  begin
     id 19
     name lradius
     direction 1 -4.48967e-011 -4.10197e-027   
     length 3.41924   
     axis 180 -30 -90   XYZ
    dof rx
    limits (-10.0 170.0)
  end
  begin
     id 20
     name lwrist
     direction 1 -4.48987e-011 -1.24264e-027   
     length 1.70962   
     axis 2.50585e-015 90 90   XYZ
    dof ry
    limits (-180.0 0.0)
 end
  begin
     id 21 
     name lhand
     direction 1 -4.48983e-011 -2.48528e-027   
     length 0.62537   
     axis 1.58582e-015 90 90   XYZ
    dof rx rz
    limits (-90.0 90.0)
           (-45.0 45.0)
  end
  begin
     id 22 
     name lfingers
     direction 1 -4.48896e-011 -4.97056e-027   
     length 0.50419   
     axis 3.17164e-015 90 90   XYZ
    dof rx
    limits (0.0 90.0)
  end
  begin
     id 23
     name lthumb
     direction 0.707107 -6.34803e-011 0.707107   
     length 0.723919   
     axis -90 45 2.85299e-015   XYZ
    dof rx rz
    limits (-45.0 45.0)
           (-45.0 45.0)
  end
  begin
     id 24 
     name rclavicle
     direction -0.964499 0.260664 -0.0423695   
     length 3.91997  
     axis 0 0 0   XYZ 
    dof ry rz
    limits (-10.0 20.0)
           (-20.0 0.0)
  end
  begin
     id 25 
     name rhumerus
     direction -1 -4.48957e-011 -1.98656e-027  
     length 4.4064   
     axis 180 30 90   XYZ
    dof rx ry rz
    limits (-90.0 60.0)
           (-90.0 90.0)
           (-90.0 90.0)
  end
  begin
     id 26 
     name rradius
     direction -1 -4.48968e-011 1.96972e-027   
     length 3.44675   
     axis 180 30 90   XYZ
    dof rx
    limits (-10.0 170.0)
  end
  begin
     id 27 
     name rwrist
     direction -1 -4.48974e-011 -1.24264e-027   
     length 1.72338   
     axis 2.50585e-015 -90 -90   XYZ
    dof ry
    limits (-180.0 0.0)
  end
  begin
     id 28
     name rhand
     direction -1 -4.48901e-011 -2.48528e-027   
     length 0.513674   
     axis 1.58582e-015 -90 -90   XYZ
    dof rx rz
    limits (-90.0 90.0)
           (-45.0 45.0)
  end
  begin
     id 29
     name rfingers
     direction -1 -4.48946e-011 -4.97056e-027   
     length 0.414137   
     axis 3.17164e-015 -90 -90   XYZ
    dof rx
    limits (0.0 90.0)
  end
  begin
     id 30
     name rthumb
     direction -0.707107 -6.34859e-011 0.707107   
     length 0.59462   
     axis -90 -45 -2.85299e-015   XYZ
    dof rx rz
    limits (-45.0 45.0)
           (-45.0 45.0)
  end
:hierarchy
  begin
    root lhipjoint rhipjoint lowerback
    lhipjoint lfemur
    lfemur ltibia
    ltibia lfoot
    lfoot ltoes
    rhipjoint rfemur
    rfemur rtibia
    rtibia rfoot
    rfoot rtoes
    lowerback upperback
    upperback thorax
    thorax lowerneck lclavicle rclavicle
    lowerneck upperneck
    upperneck head
    lclavicle lhumerus
    lhumerus lradius
    lradius lwrist
    lwrist lhand lthumb
    lhand lfingers
    rclavicle rhumerus
    rhumerus rradius
    rradius rwrist
    rwrist rhand rthumb
    rhand rfingers
  end

#!OML:ASF E:\inclinewalkrobotboard\Project 1\Capture day 1\Session 1\subject1.ASF
:FULLY-SPECIFIED
:DEGREES
85
root 6.95106 17.2667 5.01786 -145.203 -43.2286 158.107
lowerback 3.87691 2.68168 -0.463022
upperback -3.98067 3.50885 9.42523
thorax -7.06554 1.80007 10.0988
lowerneck -10.9011 2.84388 -4.142
upperneck -12.7534 2.86053 -3.59169
head -2.23922 1.19717 -0.39782
rclavicle -8.74653e-014 -8.26944e-014
rhumerus 19.8574 -43.6569 -76.7395
rradius 20.5186
rwrist -24.2006
rhand 1.04265 -17.7843
rfingers 7.12502
rthumb 26.5887 -45.9377
lclavicle -8.74653e-014 -8.26944e-014
lhumerus 34.2698 29.3563 22.5467
lradius 83.0157
lwrist -15.6259
lhand -50.1026 -32.7384
lfingers 7.12502
lthumb -22.6875 -4.05203
rfemur -34.0131 7.11955 -6.23117
rtibia 31.7876
rfoot 4.27749 -14.5465
rtoes -21.6619
lfemur -0.354426 -4.50311 -23.4854
ltibia -2.54444e-014
lfoot 33.5515 20.8995
ltoes -69.3485
86
root 6.9557 17.2829 4.91316 -145.11 -43.7568 157.869
lowerback 3.70671 2.52486 -0.53315
upperback -4.07006 3.2972 9.34754
thorax -7.02219 1.70138 10.0788
lowerneck -10.5332 2.74752 -3.71858
upperneck -12.8841 2.65784 -3.91548
head -2.33026 1.09491 -0.578207
rclavicle 5.48646e-014 9.85972e-014
rhumerus 20.1663 -44.967 -76.9467
rradius 19.7972
rwrist -23.0719
rhand 1.67166 -18.4092
rfingers 7.12502
rthumb 27.1905 -46.4699
lclavicle 5.48646e-014 9.85972e-014
lhumerus 35.7193 29.2998 22.8107
lradius 81.5515
lwrist -16.2987
lhand -50.3063 -32.0762
lfingers 7.12502
lthumb -22.8831 -3.41394
rfemur -33.2997 6.94029 -5.79209
rtibia 31.5292
rfoot 4.38709 -14.1584
rtoes -21.5719
lfemur -0.264768 -5.09177 -22.8748
ltibia 0
lfoot 33.9366 20.946
ltoes -69.6765
87
root 6.96788 17.2818 4.81337 -144.994 -44.2663 157.511
lowerback 3.64353 2.41324 -0.749664
upperback -4.06214 3.14141 9.29702
thorax -6.95815 1.63841 10.1667
lowerneck -10.3881 2.58624 -3.58778
upperneck -13.0989 2.38481 -4.15639
head -2.42248 0.95945 -0.683301
rclavicle -2.14687e-014 -6.36111e-014
rhumerus 20.8067 -46.6266 -77.3511
rradius 19.134
rwrist -21.5765
rhand 2.01087 -18.7467
rfingers 7.12502
rthumb 27.515 -46.7562
lclavicle -2.14687e-014 -6.36111e-014
lhumerus 37.2423 29.3669 23.3496
lradius 80.14
lwrist -17.304
lhand -50.0829 -31.1951
lfingers 7.12502
lthumb -22.6686 -2.50643
rfemur -32.5882 6.83888 -5.47153
rtibia 31.4034
rfoot 4.2826 -13.7208
rtoes -22.1707
lfemur -0.161502 -5.71081 -22.3448
ltibia 3.18055e-015
lfoot 34.4987 20.9287
ltoes -69.746
88
root 6.98262 17.2708 4.72124 -144.814 -44.9186 157.166
lowerback 3.53845 2.40631 -0.95132
upperback -4.06749 3.12398 9.27429
thorax -6.91126 1.64317 10.2643
lowerneck -10.5134 2.18863 -4.07561
upperneck -13.2091 1.90079 -3.92212
head -2.45108 0.734323 -0.532171
rclavicle 9.78021e-014 8.5875e-014
rhumerus 21.1326 -48.3236 -77.3021
rradius 18.7685
rwrist -20.4601
rhand 1.78049 -18.8039
rfingers 7.12502
rthumb 27.2946 -46.8483
lclavicle 9.78021e-014 8.5875e-014
lhumerus 38.9698 29.2957 24.2632
lradius 78.9203
lwrist -17.9091
lhand -49.4085 -30.815
lfingers 7.12502
lthumb -22.0213 -2.04868
rfemur -31.9098 6.71987 -5.10329
rtibia 31.3413
rfoot 3.96755 -13.2788
rtoes -22.3321
lfemur -0.184412 -6.44413 -21.7369
ltibia 3.18055e-015
lfoot 35.2728 20.9922
ltoes -69.6446
89
root 6.99621 17.2514 4.636 -144.729 -45.6507 156.923
lowerback 3.44073 2.42247 -1.04071
upperback -4.03828 3.14028 9.28191
thorax -6.83259 1.65603 10.3249
lowerneck -10.7049 1.82578 -4.42773
upperneck -13.313 1.46908 -3.58334
head -2.46227 0.527725 -0.369201
rclavicle 5.64548e-014 9.54166e-014
rhumerus 21.2225 -49.7225 -76.8865
rradius 18.5425
rwrist -19.8096
rhand 1.70941 -19.2997
rfingers 7.12502
rthumb 27.2266 -47.3548
lclavicle 5.64548e-014 9.54166e-014
lhumerus 40.7468 29.1212 25.1554
lradius 77.685
lwrist -17.9737
lhand -48.8808 -30.9998
lfingers 7.12502
lthumb -21.5145 -2.17472
rfemur -31.1748 6.36598 -4.53839
rtibia 31.3155
rfoot 3.53304 -12.6398
rtoes -22.193
lfemur -0.169236 -7.20155 -21.0452
ltibia 2.22639e-014
lfoot 36.035 21.1844
ltoes -69.4843
90
root 7.01228 17.2233 4.54969 -144.649 -46.2221 156.631
lowerback 3.3969 2.37466 -1.29387
upperback -4.03341 3.0704 9.2291
thorax -6.80087 1.63826 10.4232
lowerneck -10.6255 1.63128 -4.43187
upperneck -13.529 1.20125 -3.44139
head -2.54897 0.396904 -0.327411
rclavicle -4.77083e-015 -1.62208e-013
rhumerus 21.377 -51.1648 -76.8264
rradius 18.2682
rwrist -19.0096
rhand 1.49852 -19.6644
rfingers 7.12502
rthumb 27.0249 -47.751
lclavicle -4.77083e-015 -1.62208e-013
lhumerus 42.2337 28.8513 25.5907
lradius 76.4453
lwrist -17.8544
lhand -48.7849 -31.4565
lfingers 7.12502
lthumb -21.4224 -2.62088
rfemur -30.4787 5.93397 -4.02639
rtibia 31.3033
rfoot 2.93162 -11.9654
rtoes -22.1318
lfemur -0.0847753 -7.85224 -20.5374
ltibia -2.8625e-014
lfoot 36.6814 21.4057
ltoes -69.3086
91
root 7.03165 17.1924 4.46413 -144.582 -46.6897 156.402
lowerback 3.35225 2.3003 -1.60401
upperback -4.05719 2.96247 9.18165
thorax -6.79588 1.60584 10.567
lowerneck -10.2793 1.53214 -4.32762
upperneck -13.9093 1.02316 -3.36339
head -2.73561 0.312309 -0.32486
rclavicle 4.6118e-014 -6.36111e-014
rhumerus 21.3174 -52.3117 -76.7801
rradius 18.1307
rwrist -18.5679
rhand 0.987377 -19.4076
rfingers 7.12502
rthumb 26.5358 -47.569
lclavicle 4.6118e-014 -6.36111e-014
lhumerus 43.2752 28.5212 25.734
lradius 75.4392
lwrist -17.9101
lhand -48.9505 -31.5607
lfingers 7.12502
lthumb -21.5815 -2.74324
rfemur -29.9394 5.58594 -3.52707
rtibia 31.3206
rfoot 2.24176 -11.4328
rtoes -21.5407
lfemur -0.00291418 -8.39869 -20.1085
ltibia 1.27222e-014
lfoot 37.3177 21.9186
ltoes -69.1162
92
root 7.04889 17.1637 4.38645 -144.727 -47.1027 156.424
lowerback 3.36363 2.24944 -1.73286
upperback -4.04377 2.88995 9.21656
thorax -6.78433 1.57832 10.692
lowerneck -10.0414 1.44563 -4.2708
upperneck -14.2575 0.858189 -3.37321
head -2.89517 0.232277 -0.341178
rclavicle -4.13472e-014 -7.95139e-014
rhumerus 20.6715 -52.5336 -76.0872
rradius 18.2406
rwrist -19.0144
rhand 0.734115 -19.4372
rfingers 7.12502
rthumb 26.2933 -47.635
lclavicle -4.13472e-014 -7.95139e-014
lhumerus 43.7268 28.2695 25.5703
lradius 74.778
lwrist -17.815
lhand -48.7745 -31.3593
lfingers 7.12502
lthumb -21.4125 -2.5225
rfemur -29.4873 5.44725 -2.92253
rtibia 31.3803
rfoot 1.48671 -11.1276
rtoes -20.7565
lfemur 0.175591 -8.8086 -19.6337
ltibia 1.59028e-014
lfoot 37.749 22.4055
ltoes -68.9666
93
root 7.06124 17.1373 4.31501 -145.13 -47.2563 156.689
lowerback 3.4741 2.27042 -1.77888
upperback -3.97962 2.91759 9.2596
thorax -6.79106 1.59471 10.7639
lowerneck -9.79944 1.41022 -3.92383
upperneck -14.6229 0.711632 -3.6393
head -3.05938 0.150738 -0.489013
rclavicle -5.00937e-014 -1.90833e-014
rhumerus 20.3102 -53.0257 -75.8267
rradius 18.296
rwrist -19.0124
rhand 1.23017 -19.7042
rfingers 7.12502
rthumb 26.7681 -47.8303
lclavicle -5.00937e-014 -1.90833e-014
lhumerus 43.5327 28.1725 25.0889
lradius 74.6252
lwrist -17.4003
lhand -48.5292 -31.1642
lfingers 7.12502
lthumb -21.1768 -2.3008
rfemur -29.1412 5.36232 -2.28969
rtibia 31.4577
rfoot 0.778753 -10.7646
rtoes -19.5938
lfemur 0.52503 -8.92206 -19.2417
ltibia 0
lfoot 37.6766 22.3361
ltoes -68.8087
94
root 7.07048 17.1166 4.24919 -145.408 -47.2034 157.105
lowerback 3.39337 2.34254 -1.74633
upperback -3.97048 3.01143 9.25092
thorax -6.75078 1.63705 10.725
lowerneck -9.41864 1.36352 -3.86726
upperneck -15.1765 0.58178 -3.55422
head -3.32019 0.0868968 -0.475688
rclavicle -4.13472e-014 6.04305e-014
rhumerus 20.0669 -53.6933 -75.8776
rradius 18.3669
rwrist -18.711
rhand 1.6342 -19.7847
rfingers 7.12502
rthumb 27.1547 -47.8511
lclavicle -4.13472e-014 6.04305e-014
lhumerus 44.1803 27.9327 24.9954
lradius 73.7768
lwrist -17.5508
lhand -48.4791 -31.2103
lfingers 7.12502
lthumb -21.1287 -2.34155
rfemur -29.1704 5.00435 -1.65932
rtibia 31.521
rfoot 0.449578 -10.0177
rtoes -19.1232
lfemur 0.64749 -8.80898 -18.8736
ltibia 3.18055e-015
lfoot 37.4375 22.4232
ltoes -68.4649
95
root 7.07997 17.1019 4.19007 -145.39 -47.1032 157.444
lowerback 3.12485 2.34444 -1.73556
upperback -4.05279 3.00547 9.21998
thorax -6.67965 1.63075 10.6888
lowerneck -9.046 1.35531 -3.8955
upperneck -15.7063 0.513672 -3.42783
head -3.57555 0.0548499 -0.433473
rclavicle -3.73715e-014 -1.46306e-013
rhumerus 19.2431 -53.4977 -75.4592
rradius 18.6219
rwrist -19.0647
rhand 1.21414 -20.1562
rfingers 7.12502
rthumb 26.7528 -48.2846
lclavicle -3.73715e-014 -1.46306e-013
lhumerus 44.1607 27.8075 24.547
lradius 73.3419
lwrist -17.7858
lhand -48.5003 -31.6474
lfingers 7.12502
lthumb -21.149 -2.78096
rfemur -29.4539 4.60472 -1.17388
rtibia 31.5675
rfoot 0.313642 -9.2008
rtoes -20.2025
lfemur 0.490235 -8.68191 -18.586
ltibia 3.18055e-015
lfoot 37.1884 22.8354
ltoes -68.1121
